<?xml version="1.0" encoding="UTF-8"?>
<!DOCTYPE svg PUBLIC "-//W3C//DTD SVG 1.1//EN" "http://www.w3.org/Graphics/SVG/1.1/DTD/svg11.dtd">
<svg xmlns="http://www.w3.org/2000/svg" version="1.1" width="1024px" height="1024px" style="shape-rendering:geometricPrecision; text-rendering:geometricPrecision; image-rendering:optimizeQuality; fill-rule:evenodd; clip-rule:evenodd" xmlns:xlink="http://www.w3.org/1999/xlink">
<g><path style="opacity:1" fill="#f0f0ed" d="M -0.5,-0.5 C 340.833,-0.5 682.167,-0.5 1023.5,-0.5C 1023.5,340.833 1023.5,682.167 1023.5,1023.5C 682.167,1023.5 340.833,1023.5 -0.5,1023.5C -0.5,682.167 -0.5,340.833 -0.5,-0.5 Z"/></g>
<g><path style="opacity:1" fill="#06172b" d="M 134.5,492.5 C 152.194,474.14 169.528,455.473 186.5,436.5C 202.948,418.246 222.948,413.08 246.5,421C 278.927,436.285 290.094,461.118 280,495.5C 276.318,502.866 271.652,509.533 266,515.5C 246.833,536 227,555.833 206.5,575C 176.809,590.119 151.643,584.619 131,558.5C 118.824,538.37 118.491,518.036 130,497.5C 131.049,495.382 132.549,493.716 134.5,492.5 Z"/></g>
<g><path style="opacity:1" fill="#0c0e15" d="M 256.5,454.5 C 243.168,439.325 227.502,436.158 209.5,445C 203.997,449.671 198.664,454.504 193.5,459.5C 204.598,441.614 220.265,435.448 240.5,441C 247.561,443.57 252.895,448.07 256.5,454.5 Z"/></g>
<g><path style="opacity:1" fill="#070a12" d="M 186.5,436.5 C 169.528,455.473 152.194,474.14 134.5,492.5C 137.71,487.11 141.544,482.11 146,477.5C 159.058,463.371 172.558,449.705 186.5,436.5 Z"/></g>
<g><path style="opacity:1" fill="#090c12" d="M 316.5,470.5 C 321.833,470.5 327.167,470.5 332.5,470.5C 332.5,495.5 332.5,520.5 332.5,545.5C 344.833,545.5 357.167,545.5 369.5,545.5C 369.5,549.833 369.5,554.167 369.5,558.5C 351.833,558.5 334.167,558.5 316.5,558.5C 316.5,529.167 316.5,499.833 316.5,470.5 Z"/></g>
<g><path style="opacity:1" fill="#040e1e" d="M 382.5,467.5 C 392.018,466.194 396.518,470.194 396,479.5C 391.128,487.341 385.128,488.341 378,482.5C 375.074,476.085 376.574,471.085 382.5,467.5 Z"/></g>
<g><path style="opacity:1" fill="#000001" d="M 491.5,470.5 C 491.667,486.837 491.5,503.17 491,519.5C 490.5,503.837 490.333,488.17 490.5,472.5C 486.5,472.5 482.5,472.5 478.5,472.5C 478.5,500.833 478.5,529.167 478.5,557.5C 482.5,557.5 486.5,557.5 490.5,557.5C 490.334,550.492 490.5,543.492 491,536.5C 491.171,543.679 491.671,550.679 492.5,557.5C 487.695,558.487 482.695,558.821 477.5,558.5C 477.5,529.167 477.5,499.833 477.5,470.5C 482.167,470.5 486.833,470.5 491.5,470.5 Z"/></g>
<g><path style="opacity:1" fill="#050f1f" d="M 666.5,467.5 C 679.399,467.197 683.066,472.697 677.5,484C 671.559,487.871 666.393,487.038 662,481.5C 659.214,475.414 660.714,470.747 666.5,467.5 Z"/></g>
<g><path style="opacity:1" fill="#000f22" d="M 317.5,472.5 C 321.833,472.5 326.167,472.5 330.5,472.5C 330.333,496.836 330.5,521.169 331,545.5C 342.916,547.467 355.082,548.134 367.5,547.5C 367.5,550.833 367.5,554.167 367.5,557.5C 350.833,557.5 334.167,557.5 317.5,557.5C 317.5,529.167 317.5,500.833 317.5,472.5 Z"/></g>
<g><path style="opacity:1" fill="#030f20" d="M 491.5,470.5 C 492.331,486.328 492.831,502.328 493,518.5C 500.531,511.303 507.698,503.803 514.5,496C 520.833,495.333 527.167,495.333 533.5,496C 525.312,505.354 517.312,514.854 509.5,524.5C 518.167,535.5 526.833,546.5 535.5,557.5C 529.863,558.663 524.196,558.83 518.5,558C 511.214,549.258 504.047,540.425 497,531.5C 495.667,532.833 494.333,534.167 493,535.5C 492.5,542.826 492.334,550.159 492.5,557.5C 491.671,550.679 491.171,543.679 491,536.5C 490.5,543.492 490.334,550.492 490.5,557.5C 486.5,557.5 482.5,557.5 478.5,557.5C 478.5,529.167 478.5,500.833 478.5,472.5C 482.5,472.5 486.5,472.5 490.5,472.5C 490.333,488.17 490.5,503.837 491,519.5C 491.5,503.17 491.667,486.837 491.5,470.5 Z"/></g>
<g><path style="opacity:1" fill="#010e1f" d="M 586.5,472.5 C 594.282,475.117 599.115,480.45 601,488.5C 603.389,498.856 600.222,506.856 591.5,512.5C 603.26,518.703 607.427,528.369 604,541.5C 602.544,547.117 599.378,551.45 594.5,554.5C 594.44,553.957 594.107,553.624 593.5,553.5C 590.558,554.819 587.558,555.985 584.5,557C 571.504,557.5 558.504,557.667 545.5,557.5C 545.5,529.167 545.5,500.833 545.5,472.5C 559.389,472.564 573.056,472.564 586.5,472.5 Z"/></g>
<g><path style="opacity:1" fill="#010e20" d="M 736.5,552.5 C 736.565,552.062 736.399,551.728 736,551.5C 728.878,559.173 720.378,561.507 710.5,558.5C 711.552,558.649 712.552,558.483 713.5,558C 697.149,554.356 689.483,544.023 690.5,527C 690.673,504.153 702.006,494.153 724.5,497C 728.311,498.07 731.644,499.903 734.5,502.5C 735.209,503.404 736.209,503.737 737.5,503.5C 737.5,493.167 737.5,482.833 737.5,472.5C 741.5,472.5 745.5,472.5 749.5,472.5C 749.5,500.833 749.5,529.167 749.5,557.5C 745.5,557.5 741.5,557.5 737.5,557.5C 737.784,555.585 737.451,553.919 736.5,552.5 Z"/></g>
<g><path style="opacity:1" fill="#596370" d="M 736.5,470.5 C 737.143,481.552 736.476,492.219 734.5,502.5C 734.5,502.167 734.5,501.833 734.5,501.5C 735.167,491.167 735.833,480.833 736.5,470.5 Z"/></g>
<g><path style="opacity:1" fill="#010209" d="M 586.5,472.5 C 573.056,472.564 559.389,472.564 545.5,472.5C 545.5,500.833 545.5,529.167 545.5,557.5C 558.504,557.667 571.504,557.5 584.5,557C 587.558,555.985 590.558,554.819 593.5,553.5C 594.107,553.624 594.44,553.957 594.5,554.5C 591.739,556.212 588.739,557.378 585.5,558C 571.504,558.5 557.504,558.667 543.5,558.5C 543.5,529.167 543.5,499.833 543.5,470.5C 555.505,470.333 567.505,470.5 579.5,471C 581.866,471.44 584.199,471.94 586.5,472.5 Z"/></g>
<g><path style="opacity:1" fill="#000108" d="M 736.5,470.5 C 741.5,470.5 746.5,470.5 751.5,470.5C 751.5,499.833 751.5,529.167 751.5,558.5C 746.5,558.5 741.5,558.5 736.5,558.5C 736.5,556.5 736.5,554.5 736.5,552.5C 737.451,553.919 737.784,555.585 737.5,557.5C 741.5,557.5 745.5,557.5 749.5,557.5C 749.5,529.167 749.5,500.833 749.5,472.5C 745.5,472.5 741.5,472.5 737.5,472.5C 737.5,482.833 737.5,493.167 737.5,503.5C 736.209,503.737 735.209,503.404 734.5,502.5C 736.476,492.219 737.143,481.552 736.5,470.5 Z"/></g>
<g><path style="opacity:1" fill="#ebebea" d="M 558.5,483.5 C 565.906,483.152 573.239,483.652 580.5,485C 588.746,492.493 588.412,499.493 579.5,506C 572.589,507.384 565.589,507.884 558.5,507.5C 558.5,499.5 558.5,491.5 558.5,483.5 Z"/></g>
<g><path style="opacity:1" fill="#f0efed" d="M 256.5,454.5 C 258.883,459.272 260.716,464.272 262,469.5C 262.995,478.523 260.995,486.856 256,494.5C 247.652,502.681 239.486,511.014 231.5,519.5C 224.146,512.479 216.813,505.479 209.5,498.5C 206.334,492.25 201.334,489.75 194.5,491C 192.714,491.785 191.214,492.951 190,494.5C 189.333,497.5 189.333,500.5 190,503.5C 192.668,507.334 195.835,510.667 199.5,513.5C 205.848,519.848 211.848,526.515 217.5,533.5C 211.718,540.784 205.385,547.618 198.5,554C 178.706,566.645 161.872,563.478 148,544.5C 141.48,531.42 142.146,518.753 150,506.5C 164.507,490.801 179.007,475.134 193.5,459.5C 198.664,454.504 203.997,449.671 209.5,445C 227.502,436.158 243.168,439.325 256.5,454.5 Z"/></g>
<g><path style="opacity:1" fill="#05070f" d="M 209.5,498.5 C 206.775,497.287 204.441,495.454 202.5,493C 193.844,490.323 190.011,493.489 191,502.5C 194.073,506.061 196.906,509.728 199.5,513.5C 195.835,510.667 192.668,507.334 190,503.5C 189.333,500.5 189.333,497.5 190,494.5C 191.214,492.951 192.714,491.785 194.5,491C 201.334,489.75 206.334,492.25 209.5,498.5 Z"/></g>
<g><path style="opacity:1" fill="#0a0d14" d="M 378.5,495.5 C 383.833,495.5 389.167,495.5 394.5,495.5C 394.5,516.5 394.5,537.5 394.5,558.5C 389.167,558.5 383.833,558.5 378.5,558.5C 378.5,537.5 378.5,516.5 378.5,495.5 Z"/></g>
<g><path style="opacity:1" fill="#000e21" d="M 427.5,510.5 C 427.167,511.5 426.5,512.167 425.5,512.5C 425.19,511.262 424.69,511.262 424,512.5C 422.601,515.363 421.601,518.363 421,521.5C 420.5,533.495 420.333,545.495 420.5,557.5C 416.5,557.5 412.5,557.5 408.5,557.5C 408.5,537.5 408.5,517.5 408.5,497.5C 412.5,497.5 416.5,497.5 420.5,497.5C 420.205,499.735 420.539,501.735 421.5,503.5C 421.5,504.167 421.833,504.5 422.5,504.5C 430.123,496.397 439.79,494.231 451.5,498C 457.837,500.836 461.67,505.669 463,512.5C 463.5,527.496 463.667,542.496 463.5,557.5C 459.5,557.5 455.5,557.5 451.5,557.5C 451.667,544.829 451.5,532.162 451,519.5C 448.723,508.937 442.223,504.77 431.5,507C 430.167,507.667 428.833,508.333 427.5,509C 426.262,509.69 426.262,510.19 427.5,510.5 Z"/></g>
<g><path style="opacity:1" fill="#010e20" d="M 634.5,516.5 C 634.19,515.262 633.69,515.262 633,516.5C 631.25,519.246 630.25,522.246 630,525.5C 629.5,536.161 629.333,546.828 629.5,557.5C 625.5,557.5 621.5,557.5 617.5,557.5C 617.5,537.5 617.5,517.5 617.5,497.5C 621.555,497.176 625.555,497.509 629.5,498.5C 628.456,500.768 628.289,503.101 629,505.5C 629.383,504.944 629.883,504.611 630.5,504.5C 630.435,504.938 630.601,505.272 631,505.5C 635.276,497.112 642.109,493.612 651.5,495C 652.469,499.737 652.803,504.57 652.5,509.5C 645.159,508.508 639.159,510.841 634.5,516.5 Z"/></g>
<g><path style="opacity:1" fill="#03040c" d="M 818.5,573.5 C 817.957,573.44 817.624,573.107 817.5,572.5C 820.123,568.58 821.623,564.247 822,559.5C 822.5,538.836 822.667,518.169 822.5,497.5C 818.167,497.5 813.833,497.5 809.5,497.5C 809.768,499.099 809.434,500.432 808.5,501.5C 808.5,499.5 808.5,497.5 808.5,495.5C 813.5,495.5 818.5,495.5 823.5,495.5C 823.667,517.836 823.5,540.169 823,562.5C 822.366,566.581 820.866,570.248 818.5,573.5 Z"/></g>
<g><path style="opacity:1" fill="#010e20" d="M 379.5,497.5 C 383.833,497.5 388.167,497.5 392.5,497.5C 392.5,517.5 392.5,537.5 392.5,557.5C 388.167,557.5 383.833,557.5 379.5,557.5C 379.5,537.5 379.5,517.5 379.5,497.5 Z"/></g>
<g><path style="opacity:1" fill="#0a0c11" d="M 734.5,501.5 C 734.5,501.833 734.5,502.167 734.5,502.5C 731.644,499.903 728.311,498.07 724.5,497C 702.006,494.153 690.673,504.153 690.5,527C 689.483,544.023 697.149,554.356 713.5,558C 712.552,558.483 711.552,558.649 710.5,558.5C 701.526,557.032 695.36,552.032 692,543.5C 688.697,532.153 688.697,520.82 692,509.5C 699.872,495.988 711.372,491.488 726.5,496C 729.756,497.116 732.422,498.949 734.5,501.5 Z"/></g>
<g><path style="opacity:1" fill="#06172b" d="M 782.5,495.5 C 792.192,493.05 800.692,495.384 808,502.5C 808.399,502.272 808.565,501.938 808.5,501.5C 809.434,500.432 809.768,499.099 809.5,497.5C 813.833,497.5 818.167,497.5 822.5,497.5C 822.667,518.169 822.5,538.836 822,559.5C 821.623,564.247 820.123,568.58 817.5,572.5C 817.624,573.107 817.957,573.44 818.5,573.5C 814.312,578.434 808.979,581.6 802.5,583C 792.222,584.37 782.222,583.37 772.5,580C 771.058,579.623 770.058,578.79 769.5,577.5C 767.334,575.163 765.334,572.663 763.5,570C 769.167,569.333 774.833,569.333 780.5,570C 788.193,573.289 795.86,573.289 803.5,570C 809.122,564.686 811.289,558.186 810,550.5C 809.617,551.056 809.117,551.389 808.5,551.5C 808.565,551.062 808.399,550.728 808,550.5C 804.746,554.361 800.579,556.528 795.5,557C 787.665,558.403 780.331,557.07 773.5,553C 770.882,550.894 768.882,548.394 767.5,545.5C 761.555,531.062 762.389,517.062 770,503.5C 773.917,499.291 778.75,496.791 784.5,496C 783.906,495.536 783.239,495.369 782.5,495.5 Z"/></g>
<g><path style="opacity:1" fill="#06162a" d="M 893.5,519.5 C 892.517,523.298 892.183,527.298 892.5,531.5C 877.657,531.171 862.99,531.504 848.5,532.5C 851.197,545.646 859.197,550.479 872.5,547C 876.004,545.082 879.337,542.916 882.5,540.5C 886.327,542.246 889.993,544.246 893.5,546.5C 883.604,558.521 870.937,562.687 855.5,559C 847.421,557.321 841.754,552.821 838.5,545.5C 834.756,534.244 834.589,522.91 838,511.5C 839.302,507.726 841.469,504.559 844.5,502C 844.272,501.601 843.938,501.435 843.5,501.5C 847.224,498.305 851.557,496.138 856.5,495C 876.283,492.209 888.616,500.376 893.5,519.5 Z"/></g>
<g><path style="opacity:1" fill="#0f1117" d="M 630.5,504.5 C 629.883,504.611 629.383,504.944 629,505.5C 628.289,503.101 628.456,500.768 629.5,498.5C 625.555,497.509 621.555,497.176 617.5,497.5C 617.5,517.5 617.5,537.5 617.5,557.5C 621.5,557.5 625.5,557.5 629.5,557.5C 629.333,546.828 629.5,536.161 630,525.5C 630.25,522.246 631.25,519.246 633,516.5C 633.69,515.262 634.19,515.262 634.5,516.5C 633.406,518.359 632.573,520.359 632,522.5C 631.5,534.495 631.333,546.495 631.5,558.5C 626.167,558.5 620.833,558.5 615.5,558.5C 615.5,537.5 615.5,516.5 615.5,495.5C 620.5,495.5 625.5,495.5 630.5,495.5C 630.5,498.5 630.5,501.5 630.5,504.5 Z"/></g>
<g><path style="opacity:1" fill="#0d1116" d="M 662.5,495.5 C 667.833,495.5 673.167,495.5 678.5,495.5C 678.5,516.5 678.5,537.5 678.5,558.5C 673.167,558.5 667.833,558.5 662.5,558.5C 662.5,537.5 662.5,516.5 662.5,495.5 Z"/></g>
<g><path style="opacity:1" fill="#000d20" d="M 669.5,496.5 C 672.167,496.5 674.833,496.5 677.5,496.5C 677.5,516.833 677.5,537.167 677.5,557.5C 673.167,557.5 668.833,557.5 664.5,557.5C 664.5,537.5 664.5,517.5 664.5,497.5C 666.415,497.784 668.081,497.451 669.5,496.5 Z"/></g>
<g><path style="opacity:1" fill="#0f1117" d="M 782.5,495.5 C 783.239,495.369 783.906,495.536 784.5,496C 778.75,496.791 773.917,499.291 770,503.5C 762.389,517.062 761.555,531.062 767.5,545.5C 765.519,542.872 764.019,539.872 763,536.5C 762.333,529.5 762.333,522.5 763,515.5C 765.016,504.318 771.516,497.652 782.5,495.5 Z"/></g>
<g><path style="opacity:1" fill="#efefed" d="M 715.5,507.5 C 726.158,505.908 732.991,510.241 736,520.5C 737.105,527.974 735.772,534.974 732,541.5C 723.685,548.464 715.685,548.131 708,540.5C 703.879,532.302 703.546,523.969 707,515.5C 709.074,511.923 711.907,509.256 715.5,507.5 Z"/></g>
<g><path style="opacity:1" fill="#f1f1ef" d="M 849.5,522.5 C 848.569,517.958 849.902,513.958 853.5,510.5C 863.267,504.078 871.434,505.744 878,515.5C 878.977,517.74 879.477,520.073 879.5,522.5C 869.5,522.5 859.5,522.5 849.5,522.5 Z"/></g>
<g><path style="opacity:1" fill="#0e1016" d="M 843.5,501.5 C 843.938,501.435 844.272,501.601 844.5,502C 841.469,504.559 839.302,507.726 838,511.5C 834.589,522.91 834.756,534.244 838.5,545.5C 836.689,543.615 835.522,541.281 835,538.5C 834.333,530.833 834.333,523.167 835,515.5C 836.076,509.667 838.909,505.001 843.5,501.5 Z"/></g>
<g><path style="opacity:1" fill="#f0efed" d="M 787.5,507.5 C 798.005,505.495 804.838,509.495 808,519.5C 809.092,526.502 808.092,533.168 805,539.5C 797.23,546.892 789.23,547.225 781,540.5C 777.196,532.447 776.529,524.114 779,515.5C 781.074,511.923 783.907,509.256 787.5,507.5 Z"/></g>
<g><path style="opacity:1" fill="#010107" d="M 421.5,503.5 C 420.539,501.735 420.205,499.735 420.5,497.5C 416.5,497.5 412.5,497.5 408.5,497.5C 408.5,517.5 408.5,537.5 408.5,557.5C 412.5,557.5 416.5,557.5 420.5,557.5C 420.333,545.495 420.5,533.495 421,521.5C 421.601,518.363 422.601,515.363 424,512.5C 424.69,511.262 425.19,511.262 425.5,512.5C 424.406,514.359 423.573,516.359 423,518.5C 422.5,531.829 422.333,545.163 422.5,558.5C 417.5,558.5 412.5,558.5 407.5,558.5C 407.5,537.5 407.5,516.5 407.5,495.5C 412.167,495.5 416.833,495.5 421.5,495.5C 421.5,498.167 421.5,500.833 421.5,503.5 Z"/></g>
<g><path style="opacity:1" fill="#080b12" d="M 427.5,510.5 C 426.262,510.19 426.262,509.69 427.5,509C 428.833,508.333 430.167,507.667 431.5,507C 442.223,504.77 448.723,508.937 451,519.5C 451.5,532.162 451.667,544.829 451.5,557.5C 455.5,557.5 459.5,557.5 463.5,557.5C 463.667,542.496 463.5,527.496 463,512.5C 461.67,505.669 457.837,500.836 451.5,498C 439.79,494.231 430.123,496.397 422.5,504.5C 426.224,497.736 432.057,494.402 440,494.5C 454.004,494.178 462.337,500.844 465,514.5C 465.5,529.163 465.667,543.83 465.5,558.5C 460.167,558.5 454.833,558.5 449.5,558.5C 449.95,543.761 449.45,529.095 448,514.5C 442.394,507.226 435.561,505.893 427.5,510.5 Z"/></g>
<g><path style="opacity:1" fill="#06060d" d="M 849.5,522.5 C 859.5,522.5 869.5,522.5 879.5,522.5C 879.477,520.073 878.977,517.74 878,515.5C 871.434,505.744 863.267,504.078 853.5,510.5C 854.219,508.112 855.885,506.612 858.5,506C 872.095,504.085 879.429,509.752 880.5,523C 869.992,523.825 859.658,523.659 849.5,522.5 Z"/></g>
<g><path style="opacity:1" fill="#121316" d="M 893.5,519.5 C 894.436,523.735 894.769,528.069 894.5,532.5C 879.167,532.5 863.833,532.5 848.5,532.5C 862.99,531.504 877.657,531.171 892.5,531.5C 892.183,527.298 892.517,523.298 893.5,519.5 Z"/></g>
<g><path style="opacity:1" fill="#03030a" d="M 557.5,518.5 C 566.608,518.057 575.608,518.557 584.5,520C 591.043,526.598 592.209,534.098 588,542.5C 585.806,545.181 582.973,546.681 579.5,547C 572.45,547.797 565.45,547.63 558.5,546.5C 557.502,537.19 557.168,527.857 557.5,518.5 Z"/></g>
<g><path style="opacity:1" fill="#edeceb" d="M 558.5,519.5 C 565.841,519.334 573.174,519.5 580.5,520C 587.999,523.499 590.833,529.333 589,537.5C 588.117,540.102 586.617,542.269 584.5,544C 575.916,545.41 567.25,545.91 558.5,545.5C 558.5,536.833 558.5,528.167 558.5,519.5 Z"/></g>
<g><path style="opacity:1" fill="#181a1f" d="M 769.5,577.5 C 764.845,575.725 762.512,572.559 762.5,568C 768.5,567.333 774.5,567.333 780.5,568C 786.829,571.7 793.495,572.366 800.5,570C 807.12,565.665 809.787,559.498 808.5,551.5C 809.117,551.389 809.617,551.056 810,550.5C 811.289,558.186 809.122,564.686 803.5,570C 795.86,573.289 788.193,573.289 780.5,570C 774.833,569.333 769.167,569.333 763.5,570C 765.334,572.663 767.334,575.163 769.5,577.5 Z"/></g>
</svg>
